<mxfile host="app.diagrams.net" modified="2023-09-27T15:54:34.470Z" agent="Mozilla/5.0 (Macintosh; Intel Mac OS X 10.15; rv:109.0) Gecko/20100101 Firefox/117.0" etag="e-KcUNAxdc9GM1VcmNOt" version="21.8.2" type="device">
  <diagram id="fCqSDi_uTI_V1DzL2zC7" name="Page-1">
    <mxGraphModel dx="431" dy="150" grid="1" gridSize="10" guides="1" tooltips="1" connect="1" arrows="1" fold="1" page="1" pageScale="1" pageWidth="850" pageHeight="1100" math="0" shadow="0">
      <root>
        <mxCell id="0" />
        <mxCell id="1" parent="0" />
        <mxCell id="uoymRhsRgHQQCD7e_Tg1-1" value="" style="endArrow=none;html=1;rounded=0;" edge="1" parent="1">
          <mxGeometry width="50" height="50" relative="1" as="geometry">
            <mxPoint x="385.0506329113924" y="967" as="sourcePoint" />
            <mxPoint x="385.0506329113924" y="1109.7845303867402" as="targetPoint" />
          </mxGeometry>
        </mxCell>
        <mxCell id="uoymRhsRgHQQCD7e_Tg1-2" value="" style="endArrow=none;html=1;rounded=0;" edge="1" parent="1">
          <mxGeometry width="50" height="50" relative="1" as="geometry">
            <mxPoint x="385" y="1153" as="sourcePoint" />
            <mxPoint x="385.0506329113924" y="1256.138674033149" as="targetPoint" />
          </mxGeometry>
        </mxCell>
        <mxCell id="uoymRhsRgHQQCD7e_Tg1-4" value="d" style="text;html=1;strokeColor=none;fillColor=none;align=center;verticalAlign=middle;whiteSpace=wrap;rounded=0;rotation=0;" vertex="1" parent="1">
          <mxGeometry x="360" y="1122.17" width="16" height="14.49" as="geometry" />
        </mxCell>
        <mxCell id="uoymRhsRgHQQCD7e_Tg1-11" value="" style="rounded=1;whiteSpace=wrap;html=1;rotation=90;" vertex="1" parent="1">
          <mxGeometry x="358.27848101265823" y="1120.4933701657458" width="321.2658227848101" height="17.84806629834254" as="geometry" />
        </mxCell>
        <mxCell id="uoymRhsRgHQQCD7e_Tg1-12" value="&lt;font style=&quot;font-size: 9px;&quot;&gt;Screen&lt;/font&gt;" style="text;html=1;strokeColor=none;fillColor=none;align=center;verticalAlign=middle;whiteSpace=wrap;rounded=0;rotation=0;" vertex="1" parent="1">
          <mxGeometry x="530" y="1030" width="43.24" height="20" as="geometry" />
        </mxCell>
        <mxCell id="uoymRhsRgHQQCD7e_Tg1-13" value="" style="endArrow=none;html=1;rounded=0;" edge="1" parent="1">
          <mxGeometry width="50" height="50" relative="1" as="geometry">
            <mxPoint x="527.8354430379746" y="1147.267403314917" as="sourcePoint" />
            <mxPoint x="545.6835443037975" y="1147.267403314917" as="targetPoint" />
          </mxGeometry>
        </mxCell>
        <mxCell id="uoymRhsRgHQQCD7e_Tg1-15" value="" style="endArrow=none;html=1;rounded=0;" edge="1" parent="1">
          <mxGeometry width="50" height="50" relative="1" as="geometry">
            <mxPoint x="527.8354430379746" y="1111.5701104972377" as="sourcePoint" />
            <mxPoint x="545.6835443037975" y="1111.5701104972377" as="targetPoint" />
          </mxGeometry>
        </mxCell>
        <mxCell id="uoymRhsRgHQQCD7e_Tg1-16" value="&lt;font style=&quot;font-size: 9px;&quot;&gt;&lt;i&gt;m&lt;/i&gt; = 0&lt;/font&gt;" style="text;html=1;strokeColor=none;fillColor=none;align=center;verticalAlign=middle;whiteSpace=wrap;rounded=0;rotation=0;" vertex="1" parent="1">
          <mxGeometry x="536.7594936708861" y="1138.3433701657457" width="71.39240506329114" height="17.84806629834254" as="geometry" />
        </mxCell>
        <mxCell id="uoymRhsRgHQQCD7e_Tg1-17" value="&lt;font style=&quot;font-size: 9px;&quot;&gt;&lt;i&gt;m&lt;/i&gt; = 1&lt;br&gt;&lt;/font&gt;" style="text;html=1;strokeColor=none;fillColor=none;align=center;verticalAlign=middle;whiteSpace=wrap;rounded=0;rotation=0;" vertex="1" parent="1">
          <mxGeometry x="536.7594936708861" y="1102.6460773480665" width="71.39240506329114" height="17.84806629834254" as="geometry" />
        </mxCell>
        <mxCell id="uoymRhsRgHQQCD7e_Tg1-21" value="&lt;font style=&quot;font-size: 9px;&quot;&gt;&lt;i&gt;m&lt;/i&gt; = 2&lt;br&gt;&lt;/font&gt;" style="text;html=1;strokeColor=none;fillColor=none;align=center;verticalAlign=middle;whiteSpace=wrap;rounded=0;rotation=0;" vertex="1" parent="1">
          <mxGeometry x="536.7594936708861" y="1065.164364640884" width="71.39240506329114" height="17.84806629834254" as="geometry" />
        </mxCell>
        <mxCell id="uoymRhsRgHQQCD7e_Tg1-22" value="" style="endArrow=none;html=1;rounded=0;" edge="1" parent="1">
          <mxGeometry width="50" height="50" relative="1" as="geometry">
            <mxPoint x="527.8354430379746" y="1074.0883977900553" as="sourcePoint" />
            <mxPoint x="545.6835443037975" y="1074.0883977900553" as="targetPoint" />
          </mxGeometry>
        </mxCell>
        <mxCell id="uoymRhsRgHQQCD7e_Tg1-25" value="" style="endArrow=none;html=1;rounded=0;" edge="1" parent="1">
          <mxGeometry width="50" height="50" relative="1" as="geometry">
            <mxPoint x="389.9998734177215" y="1149.046132596685" as="sourcePoint" />
            <mxPoint x="507.7973417721519" y="1149.046132596685" as="targetPoint" />
          </mxGeometry>
        </mxCell>
        <mxCell id="uoymRhsRgHQQCD7e_Tg1-26" value="D" style="edgeLabel;html=1;align=center;verticalAlign=middle;resizable=0;points=[];rotation=0;" vertex="1" connectable="0" parent="uoymRhsRgHQQCD7e_Tg1-25">
          <mxGeometry x="-0.3411" y="-1" relative="1" as="geometry">
            <mxPoint x="21" y="-1" as="offset" />
          </mxGeometry>
        </mxCell>
        <mxCell id="uoymRhsRgHQQCD7e_Tg1-29" value="" style="endArrow=none;html=1;rounded=0;fillColor=#dae8fc;strokeColor=#6c8ebf;entryX=0.334;entryY=1.047;entryDx=0;entryDy=0;entryPerimeter=0;" edge="1" parent="1" target="uoymRhsRgHQQCD7e_Tg1-11">
          <mxGeometry width="50" height="50" relative="1" as="geometry">
            <mxPoint x="385.0506329113924" y="1113.3541436464088" as="sourcePoint" />
            <mxPoint x="470" y="1130" as="targetPoint" />
          </mxGeometry>
        </mxCell>
        <mxCell id="uoymRhsRgHQQCD7e_Tg1-32" value="" style="endArrow=none;html=1;rounded=0;fillColor=#dae8fc;strokeColor=#6c8ebf;entryX=0.337;entryY=1.047;entryDx=0;entryDy=0;entryPerimeter=0;" edge="1" parent="1" target="uoymRhsRgHQQCD7e_Tg1-11">
          <mxGeometry width="50" height="50" relative="1" as="geometry">
            <mxPoint x="400" y="1140" as="sourcePoint" />
            <mxPoint x="470" y="1130" as="targetPoint" />
          </mxGeometry>
        </mxCell>
        <mxCell id="uoymRhsRgHQQCD7e_Tg1-33" value="" style="endArrow=none;html=1;rounded=0;fillColor=#f8cecc;strokeColor=#b85450;" edge="1" parent="1">
          <mxGeometry width="50" height="50" relative="1" as="geometry">
            <mxPoint x="385" y="1149" as="sourcePoint" />
            <mxPoint x="400" y="1140" as="targetPoint" />
          </mxGeometry>
        </mxCell>
        <mxCell id="uoymRhsRgHQQCD7e_Tg1-35" value="" style="endArrow=none;html=1;rounded=0;fillColor=#dae8fc;strokeColor=#6c8ebf;dashed=1;strokeWidth=0.5;" edge="1" parent="1">
          <mxGeometry width="50" height="50" relative="1" as="geometry">
            <mxPoint x="385" y="1113.35" as="sourcePoint" />
            <mxPoint x="400" y="1140" as="targetPoint" />
          </mxGeometry>
        </mxCell>
        <mxCell id="uoymRhsRgHQQCD7e_Tg1-27" value="" style="endArrow=none;html=1;rounded=0;" edge="1" parent="1">
          <mxGeometry width="50" height="50" relative="1" as="geometry">
            <mxPoint x="385.0506329113924" y="1113.3541436464088" as="sourcePoint" />
            <mxPoint x="385" y="1149" as="targetPoint" />
          </mxGeometry>
        </mxCell>
        <mxCell id="uoymRhsRgHQQCD7e_Tg1-40" value="&lt;span class=&quot;ILfuVd&quot; lang=&quot;en&quot;&gt;&lt;span class=&quot;hgKElc&quot;&gt;θ&lt;/span&gt;&lt;/span&gt;" style="text;whiteSpace=wrap;html=1;" vertex="1" parent="1">
          <mxGeometry x="410" y="1129.05" width="10" height="20" as="geometry" />
        </mxCell>
        <mxCell id="uoymRhsRgHQQCD7e_Tg1-41" value="" style="endArrow=classic;html=1;rounded=0;" edge="1" parent="1">
          <mxGeometry width="50" height="50" relative="1" as="geometry">
            <mxPoint x="360" y="1083.01" as="sourcePoint" />
            <mxPoint x="380" y="1113.01" as="targetPoint" />
          </mxGeometry>
        </mxCell>
        <mxCell id="uoymRhsRgHQQCD7e_Tg1-42" value="&lt;font style=&quot;font-size: 9px;&quot;&gt;This angle is also &lt;span class=&quot;ILfuVd&quot; lang=&quot;en&quot; style=&quot;font-size: 9px;&quot;&gt;&lt;span class=&quot;hgKElc&quot; style=&quot;font-size: 9px;&quot;&gt;θ&lt;/span&gt;&lt;/span&gt;&lt;/font&gt;" style="text;whiteSpace=wrap;html=1;fontSize=9;" vertex="1" parent="1">
          <mxGeometry x="330" y="1054.09" width="60" height="40" as="geometry" />
        </mxCell>
        <mxCell id="uoymRhsRgHQQCD7e_Tg1-43" value="" style="endArrow=classic;html=1;rounded=0;fillColor=#f8cecc;strokeColor=#b85450;" edge="1" parent="1">
          <mxGeometry width="50" height="50" relative="1" as="geometry">
            <mxPoint x="410" y="1166.9" as="sourcePoint" />
            <mxPoint x="390" y="1146.9" as="targetPoint" />
          </mxGeometry>
        </mxCell>
        <mxCell id="uoymRhsRgHQQCD7e_Tg1-45" value="&lt;span style=&quot;font-size: 7px;&quot;&gt;&lt;span class=&quot;LrzXr kno-fv wHYlTd z8gr9e&quot; style=&quot;font-size: 7px;&quot;&gt;Δ&lt;/span&gt;&lt;/span&gt;L = d sin(&lt;span class=&quot;ILfuVd&quot; lang=&quot;en&quot; style=&quot;font-size: 7px;&quot;&gt;&lt;/span&gt;&lt;span class=&quot;ILfuVd&quot; lang=&quot;en&quot; style=&quot;font-size: 7px;&quot;&gt;θ)&lt;/span&gt;" style="text;whiteSpace=wrap;html=1;fontSize=7;" vertex="1" parent="1">
          <mxGeometry x="410" y="1155.82" width="50" height="20" as="geometry" />
        </mxCell>
        <mxCell id="uoymRhsRgHQQCD7e_Tg1-48" value="&lt;span class=&quot;ILfuVd&quot; lang=&quot;en&quot; style=&quot;font-size: 5px;&quot;&gt;&lt;span class=&quot;hgKElc&quot; style=&quot;font-size: 5px;&quot;&gt;θ&lt;/span&gt;&lt;/span&gt;" style="text;whiteSpace=wrap;html=1;fontSize=5;" vertex="1" parent="1">
          <mxGeometry x="385" y="1116" width="10" height="11.66" as="geometry" />
        </mxCell>
      </root>
    </mxGraphModel>
  </diagram>
</mxfile>
